# AST/ASF file generated using VICON BodyLanguage
# -----------------------------------------------
:version 1.10
:name VICON
:units
  mass 1.0
  length 0.45
  angle deg
:documentation
   .ast/.asf automatically generated from VICON data using
   VICON BodyBuilder and BodyLanguage model FoxedUp or BRILLIANT.MOD
:root
   order TX TY TZ RX RY RZ
   axis XYZ
   position 0 0 0  
   orientation 0 0 0 
:bonedata
  begin
     id 1 
     name lhipjoint
     direction 0.645893 -0.654526 0.392961 
     length 2.38111 
     axis 0 0 0  XYZ
  end
  begin
     id 2 
     name lfemur
     direction 0.34202 -0.939693 0  
     length 6.6822  
     axis 0 0 20  XYZ
    dof rx ry rz
    limits (-160.0 20.0)
           (-70.0 70.0)
           (-60.0 70.0)
  end
  begin
     id 3 
     name ltibia
     direction 0.34202 -0.939693 0   
     length 6.93904   
     axis 0 0 20   XYZ
    dof rx
    limits (-10.0 170.0)
  end
  begin
     id 4 
     name lfoot
     direction 0.0694967 -0.190941 0.979138   
     length 2.13616   
     axis -90 7.62852e-016 20   XYZ
    dof rx rz
    limits (-45.0 90.0)
           (-70.0 20.0)
  end
  begin
     id 5 
     name ltoes
     direction 1.535e-011 -4.2202e-011 1   
     length 1.07536   
     axis -90 7.62852e-016 20   XYZ
    dof rx
    limits (-90.0 20.0)
  end
  begin
     id 6 
     name rhipjoint
     direction -0.700219 -0.612087 0.367481   
     length 2.54621  
     axis 0 0 0  XYZ 
  end
  begin
     id 7 
     name rfemur
     direction -0.34202 -0.939693 0   
     length 6.55353   
     axis 0 0 -20   XYZ
    dof rx ry rz
    limits (-160.0 20.0)
           (-70.0 70.0)
           (-70.0 60.0)
  end
  begin
     id 8 
     name rtibia
     direction -0.34202 -0.939693 0   
     length 6.8736   
     axis 0 0 -20   XYZ
    dof rx
    limits (-10.0 170.0)
 end
 begin
     id 9 
     name rfoot
     direction -0.0679995 -0.186827 0.980037   
     length 2.1218  
     axis -90 -7.62852e-016 -20   XYZ
    dof rx rz
    limits (-45.0 90.0)
           (-20.0 70.0)
  end
  begin
     id 10 
     name rtoes
     direction -1.53589e-011 -4.21772e-011 1   
     length 1.06864   
     axis -90 -7.62852e-016 -20   XYZ
    dof rx
    limits (-90.0 20.0)
  end
  begin
     id 11 
     name lowerback
     direction -0.0416607 0.996347 -0.0745409   
     length 2.12205   
     axis 0 0 0   XYZ
    dof rx ry rz
    limits (-20.0 45.0)
           (-30.0 30.0)
           (-30.0 30.0)
  end
  begin
     id 12 
     name upperback
     direction -0.000153993 0.999276 -0.0380568   
     length 2.12759   
     axis 0 0 0   XYZ
    dof rx ry rz
    limits (-20.0 45.0)
           (-30.0 30.0)
           (-30.0 30.0)
  end
  begin
     id 13 
     name thorax
     direction 0.0187671 0.999821 -0.00241421   
     length 2.13704   
     axis 0 0 0   XYZ
    dof rx ry rz
    limits (-20.0 45.0)
           (-30.0 30.0)
           (-30.0 30.0)
  end
  begin
     id 14 
     name lowerneck
     direction 0.0268157 0.964865 0.261374   
     length 1.65253   
     axis 0 0 0   XYZ
    dof rx ry rz
    limits (-20.0 45.0)
           (-30.0 30.0)
           (-30.0 30.0)
  end
  begin
     id 15 
     name upperneck
     direction 0.00263774 0.939908 -0.341418   
     length 1.72375   
     axis 0 0 0   XYZ
    dof rx ry rz
    limits (-20.0 45.0)
           (-30.0 30.0)
           (-30.0 30.0)
  end
  begin
     id 16
     name head
     direction -0.00526001 0.989001 -0.147818  
     length 1.74878  
     axis 0 0 0   XYZ
    dof rx ry rz
    limits (-20.0 45.0)
           (-30.0 30.0)
           (-30.0 30.0)
  end
  begin
     id 17 
     name lclavicle
     direction 0.881214 0.461162 -0.103884  
     length 3.25108  
     axis 0 0 0   XYZ
    dof ry rz
    limits (-20.0 10.0)
           (0.0 20.0)
  end
  begin
     id 18 
     name lhumerus
     direction 1 -4.4899e-011 3.38092e-027   
     length 4.87408   
     axis 180 -30 -90   XYZ
    dof rx ry rz
    limits (-60.0 90.0)
           (-90.0 90.0)
           (-90.0 90.0)
  end
  begin
     id 19
     name lradius
     direction 1 -4.48931e-011 9.96288e-027   
     length 2.76729   
     axis 180 -30 -90   XYZ
    dof rx
    limits (-10.0 170.0)
  end
  begin
     id 20
     name lwrist
     direction 1 -4.4896e-011 1.50617e-026   
     length 1.38364   
     axis -9.31234e-015 90 90   XYZ
    dof ry
    limits (-180.0 0.0)
 end
  begin
     id 21 
     name lhand
     direction 1 -4.49038e-011 3.01286e-026   
     length 0.98922   
     axis -1.92217e-014 90 90   XYZ
    dof rx rz
    limits (-90.0 90.0)
           (-45.0 45.0)
  end
  begin
     id 22 
     name lfingers
     direction 1 -4.49051e-011 6.02588e-026   
     length 0.797535   
     axis -3.84436e-014 90 90   XYZ
    dof rx
    limits (0.0 90.0)
  end
  begin
     id 23
     name lthumb
     direction 0.707107 -6.34901e-011 0.707107   
     length 1.14511   
     axis -90 45 2.19363e-014   XYZ
    dof rx rz
    limits (-45.0 45.0)
           (-45.0 45.0)
  end
  begin
     id 24 
     name rclavicle
     direction -0.893894 0.441652 -0.0767889   
     length 3.29361  
     axis 0 0 0   XYZ 
    dof ry rz
    limits (-10.0 20.0)
           (-20.0 0.0)
  end
  begin
     id 25 
     name rhumerus
     direction -1 -4.48945e-011 8.0491e-028  
     length 4.71404   
     axis 180 30 90   XYZ
    dof rx ry rz
    limits (-90.0 60.0)
           (-90.0 90.0)
           (-90.0 90.0)
  end
  begin
     id 26 
     name rradius
     direction -1 -4.48986e-011 9.27795e-027   
     length 2.83468   
     axis 180 30 90   XYZ
    dof rx
    limits (-10.0 170.0)
  end
  begin
     id 27 
     name rwrist
     direction -1 -4.49029e-011 1.5064e-026   
     length 1.41734   
     axis -9.31234e-015 -90 -90   XYZ
    dof ry
    limits (-180.0 0.0)
  end
  begin
     id 28
     name rhand
     direction -1 -4.48857e-011 3.01165e-026   
     length 0.868195   
     axis -1.92217e-014 -90 -90   XYZ
    dof rx rz
    limits (-90.0 90.0)
           (-45.0 45.0)
  end
  begin
     id 29
     name rfingers
     direction -1 -4.49048e-011 6.02585e-026   
     length 0.699961   
     axis -3.84436e-014 -90 -90   XYZ
    dof rx
    limits (0.0 90.0)
  end
  begin
     id 30
     name rthumb
     direction -0.707107 -6.34854e-011 0.707107   
     length 1.00501   
     axis -90 -45 -2.19363e-014   XYZ
    dof rx rz
    limits (-45.0 45.0)
           (-45.0 45.0)
  end
:hierarchy
  begin
    root lhipjoint rhipjoint lowerback
    lhipjoint lfemur
    lfemur ltibia
    ltibia lfoot
    lfoot ltoes
    rhipjoint rfemur
    rfemur rtibia
    rtibia rfoot
    rfoot rtoes
    lowerback upperback
    upperback thorax
    thorax lowerneck lclavicle rclavicle
    lowerneck upperneck
    upperneck head
    lclavicle lhumerus
    lhumerus lradius
    lradius lwrist
    lwrist lhand lthumb
    lhand lfingers
    rclavicle rhumerus
    rhumerus rradius
    rradius rwrist
    rwrist rhand rthumb
    rhand rfingers
  end

#!OML:ASF H:\ManfredObstacles\Project 1\Capture day 2\Session 1\male.ASF
:FULLY-SPECIFIED
:DEGREES
100
root 1.13894 17.7075 5.62061 -163.472 14.4327 178.285
lowerback -1.65737 7.54996 -3.51561
upperback -0.248747 10.4492 -5.52648
thorax 1.08446 5.33253 -3.45325
lowerneck -30.241 0.527221 -1.35193
upperneck 45.5261 -7.85311 5.61296
head 28.3966 -3.61292 0.567433
rclavicle 5.66536e-014 -6.36111e-015
rhumerus -35.2578 29.9169 -80.5031
rradius 94.6163
rwrist 7.50862
rhand -6.1162 0.0506665
rfingers 7.12502
rthumb 19.7206 -28.969
lclavicle 5.66536e-014 -6.36111e-015
lhumerus -70.6272 -32.4456 80.2817
lradius 88.2624
lwrist -12.3578
lhand -13.9416 11.3207
lfingers 7.12502
lthumb 12.1854 40.9457
rfemur 16.2438 5.03042 16.9043
rtibia 5.91114
rfoot 43.808 -15.1047
rtoes -11.2682
lfemur -68.6348 2.41839 -16.7056
ltibia 65.4555
lfoot 18.3704 9.85291
ltoes -3.70665
101
root 1.13648 17.8144 5.24656 -163.578 14.9724 178.584
lowerback -1.97851 7.87063 -3.42394
upperback -0.211127 10.8903 -5.47832
thorax 1.32544 5.54708 -3.38547
lowerneck -30.0592 0.514394 -1.51478
upperneck 45.6778 -7.92583 5.64891
head 28.5529 -3.69273 0.593613
rclavicle 1.27421e-013 7.95139e-016
rhumerus -35.101 30.3758 -80.1122
rradius 94.5209
rwrist 7.23675
rhand -5.68358 0.0855669
rfingers 7.12502
rthumb 20.1365 -28.8908
lclavicle 1.27421e-013 7.95139e-016
lhumerus -71.4408 -32.8687 80.2256
lradius 88.6754
lwrist -12.5267
lhand -13.9168 11.5604
lfingers 7.12502
lthumb 12.2094 41.184
rfemur 17.191 4.56776 16.5775
rtibia 6.66322
rfoot 43.728 -15.1585
rtoes -11.3713
lfemur -67.6924 2.84627 -16.2354
ltibia 61.8116
lfoot 19.8636 8.41796
ltoes -3.66274
102
root 1.13206 17.91 4.87222 -163.72 15.5249 178.961
lowerback -2.24804 8.18986 -3.22931
upperback -0.16008 11.3187 -5.39617
thorax 1.56389 5.75427 -3.33945
lowerneck -29.8756 0.536802 -1.63565
upperneck 45.8449 -7.95336 5.64891
head 28.7159 -3.75545 0.60256
rclavicle -3.97569e-016 -1.98785e-014
rhumerus -34.9174 30.7767 -79.7688
rradius 94.2253
rwrist 6.93088
rhand -5.22606 0.0842314
rfingers 7.12502
rthumb 20.5762 -28.8453
lclavicle -3.97569e-016 -1.98785e-014
lhumerus -72.1745 -33.2378 80.172
lradius 88.9976
lwrist -12.7366
lhand -13.8967 11.5813
lfingers 7.12502
lthumb 12.2287 41.2038
rfemur 17.7337 4.14918 16.2888
rtibia 8.30571
rfoot 43.3065 -15.1583
rtoes -11.5714
lfemur -66.5662 3.24808 -15.6482
ltibia 58.1283
lfoot 21.3487 7.00384
ltoes -3.65359
103
root 1.12551 17.9941 4.49701 -163.91 16.0763 179.394
lowerback -2.44638 8.49825 -2.94019
upperback -0.105807 11.7216 -5.29274
thorax 1.7804 5.94912 -3.3286
lowerneck -29.6477 0.603641 -1.69045
upperneck 46.027 -7.94682 5.62268
head 28.8608 -3.80141 0.591546
rclavicle -1.16488e-013 9.54166e-014
rhumerus -34.7692 31.1153 -79.5154
rradius 93.779
rwrist 6.63049
rhand -4.70874 0.051032
rfingers 7.12502
rthumb 21.0732 -28.8239
lclavicle -1.16488e-013 9.54166e-014
lhumerus -72.8638 -33.5556 80.1113
lradius 89.2334
lwrist -12.928
lhand -13.9109 11.3566
lfingers 7.12502
lthumb 12.215 40.98
rfemur 18.0757 3.75617 16.0204
rtibia 10.4479
rfoot 42.8767 -15.1748
rtoes -11.3192
lfemur -65.2493 3.57117 -14.9385
ltibia 54.4247
lfoot 22.7985 5.67935
ltoes -3.64656
104
root 1.11728 18.067 4.12091 -164.124 16.6249 179.849
lowerback -2.61735 8.78828 -2.59806
upperback -0.0428042 12.0952 -5.17788
thorax 1.99994 6.12999 -3.33452
lowerneck -29.4177 0.699316 -1.69043
upperneck 46.2023 -7.90298 5.57197
head 28.9788 -3.82616 0.565894
rclavicle -6.63941e-014 1.98785e-015
rhumerus -34.6215 31.397 -79.3267
rradius 93.1951
rwrist 6.37682
rhand -4.13223 -0.00694141
rfingers 7.12502
rthumb 21.627 -28.8192
lclavicle -6.63941e-014 1.98785e-015
lhumerus -73.4946 -33.808 80.0276
lradius 89.399
lwrist -13.0402
lhand -13.952 10.8824
lfingers 7.12502
lthumb 12.1754 40.5081
rfemur 18.2859 3.73841 15.8632
rtibia 12.883
rfoot 42.5726 -15.5136
rtoes -10.9036
lfemur -63.7824 3.77805 -14.1183
ltibia 50.7218
lfoot 24.2005 4.51317
ltoes -3.69017
105
root 1.10777 18.129 3.74332 -164.362 17.1809 180.298
lowerback -2.77847 9.05956 -2.24277
upperback 0.0267453 12.4419 -5.05714
thorax 2.22357 6.29825 -3.33998
lowerneck -29.1739 0.820472 -1.67071
upperneck 46.3902 -7.85042 5.52885
head 29.1095 -3.84758 0.542432
rclavicle -5.24792e-014 3.97569e-014
rhumerus -34.5002 31.6175 -79.2186
rradius 92.5022
rwrist 6.21795
rhand -3.52998 -0.0838518
rfingers 7.12502
rthumb 22.2052 -28.8284
lclavicle -5.24792e-014 3.97569e-014
lhumerus -74.0945 -33.9909 79.9305
lradius 89.512
lwrist -13.0779
lhand -13.9918 10.2815
lfingers 7.12502
lthumb 12.137 39.9094
rfemur 18.396 3.81731 15.6989
rtibia 15.5071
rfoot 42.3514 -15.7696
rtoes -10.4164
lfemur -62.1746 3.82809 -13.18
ltibia 47.0476
lfoot 25.5333 3.62963
ltoes -3.85345
106
root 1.09758 18.1796 3.36449 -164.605 17.747 180.717
lowerback -2.95798 9.30909 -1.91142
upperback 0.102168 12.7606 -4.93193
thorax 2.4584 6.45289 -3.32323
lowerneck -28.9501 0.946646 -1.6521
upperneck 46.5627 -7.78017 5.49201
head 29.2294 -3.8614 0.528998
rclavicle -1.42529e-013 1.98785e-014
rhumerus -34.4084 31.7727 -79.1804
rradius 91.7212
rwrist 6.23624
rhand -2.93509 -0.167626
rfingers 7.12502
rthumb 22.7763 -28.8431
lclavicle -1.42529e-013 1.98785e-014
lhumerus -74.6734 -34.0933 79.8324
lradius 89.5942
lwrist -13.0647
lhand -14.0422 9.61702
lfingers 7.12502
lthumb 12.0884 39.2478
rfemur 18.3966 3.97636 15.505
rtibia 18.2729
rfoot 42.179 -15.7964
rtoes -9.94747
lfemur -60.4635 3.68038 -12.113
ltibia 43.4291
lfoot 26.8324 3.11162
ltoes -4.07786
107
root 1.08706 18.2183 2.98423 -164.865 18.3223 181.08
lowerback -3.15194 9.5336 -1.64345
upperback 0.178593 13.0484 -4.80444
thorax 2.68817 6.59194 -3.26861
lowerneck -28.7237 1.08617 -1.64126
upperneck 46.7418 -7.70643 5.47301
head 29.3659 -3.87756 0.528411
rclavicle 1.11319e-013 -1.59028e-014
rhumerus -34.3651 31.8656 -79.2254
rradius 90.8737
rwrist 6.39365
rhand -2.36164 -0.238493
rfingers 7.12502
rthumb 23.3265 -28.8452
lclavicle 1.11319e-013 -1.59028e-014
lhumerus -75.2636 -34.1162 79.7549
lradius 89.662
lwrist -13.0214
lhand -14.0709 9.00333
lfingers 7.12502
lthumb 12.0608 38.6358
rfemur 18.3075 4.18205 15.2494
rtibia 21.1458
rfoot 42.0008 -15.4829
rtoes -9.56009
lfemur -58.6576 3.28107 -10.9116
ltibia 39.8949
lfoot 28.1346 2.98733
ltoes -4.35831
108
root 1.07634 18.2448 2.60324 -165.146 18.9195 181.38
lowerback -3.35416 9.73742 -1.45278
upperback 0.262546 13.3114 -4.67084
thorax 2.91141 6.71788 -3.16618
lowerneck -28.517 1.23158 -1.60276
upperneck 46.9032 -7.60071 5.42476
head 29.4718 -3.87703 0.514011
rclavicle -1.39348e-013 1.78906e-014
rhumerus -34.3562 31.9041 -79.3273
rradius 89.9702
rwrist 6.70895
rhand -1.86861 -0.289665
rfingers 7.12502
rthumb 23.7994 -28.8356
lclavicle -1.39348e-013 1.78906e-014
lhumerus -75.8636 -34.0502 79.7131
lradius 89.7268
lwrist -12.9975
lhand -14.0855 8.49644
lfingers 7.12502
lthumb 12.0466 38.1297
rfemur 18.1348 4.43704 14.9261
rtibia 24.1035
rfoot 41.7696 -14.8286
rtoes -9.35128
lfemur -56.7691 2.58457 -9.54907
ltibia 36.4772
lfoot 29.494 3.32528
ltoes -4.56907
109
root 1.06525 18.2584 2.22176 -165.45 19.5244 181.61
lowerback -3.55651 9.92086 -1.34417
upperback 0.343232 13.55 -4.53385
thorax 3.11083 6.83066 -3.01986
lowerneck -28.3426 1.392 -1.54421
upperneck 47.085 -7.49352 5.3613
head 29.6311 -3.8759 0.483354
rclavicle -4.13472e-014 1.86858e-014
rhumerus -34.4097 31.8734 -79.4967
rradius 89.0305
rwrist 7.1682
rhand -1.47664 -0.303953
rfingers 7.12502
rthumb 24.1753 -28.8004
lclavicle -4.13472e-014 1.86858e-014
lhumerus -76.5043 -33.9196 79.7233
lradius 89.8095
lwrist -13.0076
lhand -14.084 8.13382
lfingers 7.12502
lthumb 12.0481 37.767
rfemur 17.8985 4.71717 14.5319
rtibia 27.116
rfoot 41.4389 -13.9588
rtoes -9.27477
lfemur -54.8369 1.54284 -8.02372
ltibia 33.2164
lfoot 30.956 4.14791
ltoes -4.5434
110
root 1.0535 18.2589 1.83947 -165.76 20.1355 181.789
lowerback -3.77732 10.0907 -1.29139
upperback 0.416595 13.7727 -4.3936
thorax 3.29787 6.93438 -2.83984
lowerneck -28.1393 1.55599 -1.50735
upperneck 47.2741 -7.40095 5.32395
head 29.7996 -3.88663 0.467685
rclavicle -8.24956e-014 -3.97569e-014
rhumerus -34.5164 31.764 -79.7238
rradius 88.0565
rwrist 7.67436
rhand -1.174 -0.298113
rfingers 7.12502
rthumb 24.4654 -28.7557
lclavicle -8.24956e-014 -3.97569e-014
lhumerus -77.1759 -33.7374 79.791
lradius 89.9204
lwrist -13.0336
lhand -14.0421 7.93225
lfingers 7.12502
lthumb 12.0885 37.5631
rfemur 17.5964 5.01321 14.0821
rtibia 30.1582
rfoot 41.0032 -12.9848
rtoes -9.36292
lfemur -52.9173 0.139449 -6.33398
ltibia 30.1637
lfoot 32.5418 5.46296
ltoes -4.34911
